<svg width="226" height="25" viewBox="0 0 226 25" fill="none" xmlns="http://www.w3.org/2000/svg">
<path d="M43.4 19.5L43.38 11.1L39.26 18.02H37.8L33.7 11.28V19.5H30.66V5.5H33.34L38.58 14.2L43.74 5.5H46.4L46.44 19.5H43.4ZM56.5416 19.74C55.0882 19.74 53.7749 19.4267 52.6016 18.8C51.4416 18.1733 50.5282 17.3133 49.8616 16.22C49.2082 15.1133 48.8816 13.8733 48.8816 12.5C48.8816 11.1267 49.2082 9.89333 49.8616 8.8C50.5282 7.69333 51.4416 6.82667 52.6016 6.2C53.7749 5.57333 55.0882 5.26 56.5416 5.26C57.9949 5.26 59.3016 5.57333 60.4616 6.2C61.6216 6.82667 62.5349 7.69333 63.2016 8.8C63.8682 9.89333 64.2016 11.1267 64.2016 12.5C64.2016 13.8733 63.8682 15.1133 63.2016 16.22C62.5349 17.3133 61.6216 18.1733 60.4616 18.8C59.3016 19.4267 57.9949 19.74 56.5416 19.74ZM56.5416 16.98C57.3682 16.98 58.1149 16.7933 58.7816 16.42C59.4482 16.0333 59.9682 15.5 60.3416 14.82C60.7282 14.14 60.9216 13.3667 60.9216 12.5C60.9216 11.6333 60.7282 10.86 60.3416 10.18C59.9682 9.5 59.4482 8.97333 58.7816 8.6C58.1149 8.21333 57.3682 8.02 56.5416 8.02C55.7149 8.02 54.9682 8.21333 54.3016 8.6C53.6349 8.97333 53.1082 9.5 52.7216 10.18C52.3482 10.86 52.1616 11.6333 52.1616 12.5C52.1616 13.3667 52.3482 14.14 52.7216 14.82C53.1082 15.5 53.6349 16.0333 54.3016 16.42C54.9682 16.7933 55.7149 16.98 56.5416 16.98ZM79.4766 5.5V19.5H76.8166L69.8366 11V19.5H66.6366V5.5H69.3166L76.2766 14V5.5H79.4766ZM93.6289 16.9V19.5H82.7889V5.5H93.3689V8.1H86.0089V11.14H92.5089V13.66H86.0089V16.9H93.6289ZM102.79 14.54V19.5H99.5502V14.5L94.1302 5.5H97.5702L101.31 11.72L105.05 5.5H108.23L102.79 14.54ZM120.289 16.9V19.5H109.449V5.5H120.029V8.1H112.669V11.14H119.169V13.66H112.669V16.9H120.289ZM131.55 19.5L128.17 14.64L124.85 19.5H121.13L126.31 12.38L121.39 5.5H125.07L128.29 10.04L131.45 5.5H134.95L130.07 12.26L135.29 19.5H131.55ZM143.708 19.62C142.321 19.62 141.068 19.3133 139.948 18.7C138.841 18.0867 137.968 17.24 137.328 16.16C136.701 15.0667 136.388 13.8467 136.388 12.5C136.388 11.1533 136.701 9.94 137.328 8.86C137.968 7.76667 138.848 6.91333 139.968 6.3C141.088 5.68667 142.341 5.38 143.728 5.38C144.768 5.38 145.728 5.55333 146.608 5.9C147.488 6.24667 148.234 6.75333 148.848 7.42L147.908 8.36C146.814 7.25333 145.434 6.7 143.768 6.7C142.661 6.7 141.654 6.95333 140.748 7.46C139.841 7.96667 139.128 8.66 138.608 9.54C138.101 10.42 137.848 11.4067 137.848 12.5C137.848 13.5933 138.101 14.58 138.608 15.46C139.128 16.34 139.841 17.0333 140.748 17.54C141.654 18.0467 142.661 18.3 143.768 18.3C145.448 18.3 146.828 17.74 147.908 16.62L148.848 17.56C148.234 18.2267 147.481 18.74 146.588 19.1C145.708 19.4467 144.748 19.62 143.708 19.62ZM163.703 5.5V19.5H162.243V13.04H153.483V19.5H152.003V5.5H153.483V11.74H162.243V5.5H163.703ZM177.052 15.76H169.252L167.572 19.5H166.032L172.432 5.5H173.892L180.292 19.5H178.732L177.052 15.76ZM176.512 14.56L173.152 7.04L169.792 14.56H176.512ZM194.308 5.5V19.5H193.088L184.088 8.14V19.5H182.608V5.5H183.828L192.848 16.86V5.5H194.308ZM208.738 12.5H210.158V17.84C209.504 18.4133 208.731 18.8533 207.838 19.16C206.944 19.4667 206.004 19.62 205.018 19.62C203.618 19.62 202.358 19.3133 201.238 18.7C200.118 18.0867 199.238 17.24 198.598 16.16C197.958 15.0667 197.638 13.8467 197.638 12.5C197.638 11.1533 197.958 9.94 198.598 8.86C199.238 7.76667 200.118 6.91333 201.238 6.3C202.358 5.68667 203.624 5.38 205.038 5.38C206.104 5.38 207.084 5.55333 207.978 5.9C208.871 6.23333 209.624 6.73333 210.238 7.4L209.318 8.34C208.211 7.24667 206.804 6.7 205.098 6.7C203.964 6.7 202.938 6.95333 202.018 7.46C201.111 7.95333 200.398 8.64667 199.878 9.54C199.358 10.42 199.098 11.4067 199.098 12.5C199.098 13.5933 199.358 14.58 199.878 15.46C200.398 16.34 201.111 17.0333 202.018 17.54C202.924 18.0467 203.944 18.3 205.078 18.3C206.518 18.3 207.738 17.94 208.738 17.22V12.5ZM224.246 18.22V19.5H214.346V5.5H223.946V6.78H215.826V11.76H223.066V13.02H215.826V18.22H224.246Z" fill="#160647"/>
<path d="M15 4.5L9.5 14.5L0 19.5H15V4.5Z" fill="url(#paint0_linear)"/>
<defs>
<linearGradient id="paint0_linear" x1="11.1548" y1="9.42507" x2="5.25648" y2="16.6023" gradientUnits="userSpaceOnUse">
<stop stop-color="#562EC2"/>
<stop offset="1" stop-color="#A07EFE"/>
</linearGradient>
</defs>
</svg>
